<svg width="300" xmlns="http://www.w3.org/2000/svg" height="300" fill="none"><g data-testid="Logo"><g data-testid="svg" xml:space="preserve" style="fill: rgb(0, 0, 0);"><path d="M248.484 285.188H84.797c-3.891 0-2.953-3.165-2.953-7.055V32.93a7.062 7.062 0 0 1 7.054-7.055h162.563c6.375 0 11.555 5.18 11.555 11.555v233.812c0 9.047-4.289 13.946-14.532 13.946Z" style="fill: rgb(198, 40, 40);" class="fills" data-testid="svg-path"/><path d="M43.43 269.859c0 4.547 7.195 8.368 11.742 8.368l188.414-.118c6.984 0 10.641-3.703 10.641-8.25l-.586-49.968H43.43v49.968Z" style="fill: rgb(148, 198, 214);" class="fills" data-testid="svg-path"/><path d="M237.82 248.156s-4.992 13.711.071 20.578c5.882 7.969 16.148 6.047 16.148 2.321V38.531c0-1.547-1.43-2.672-2.93-2.343-3.257.703-9.117.726-16.898-4.43l3.609 216.398Z" style="fill: rgb(245, 245, 245);" class="fills" data-testid="svg-path"/><path d="M220.688 259.805H55.406V15.117h169.336c5.321 0 9.071 1.43 10.828 3.797 2.297 3.07 3.516 7.734 3.516 12.844v209.648c0 10.149-8.227 18.399-18.398 18.399Z" style="fill: rgb(198, 40, 40);" class="fills" data-testid="svg-path"/><path d="M215.648 252.609H59.859c-6.468 0-11.695-5.25-11.695-11.695V26.836c0-6.469 5.25-11.695 11.695-11.695h155.789c8.954 0 16.219 5.109 16.219 16.218v205.055c-.023 8.93-7.265 16.195-16.219 16.195Z" style="fill: rgb(244, 67, 54);" class="fills" data-testid="svg-path"/><path d="M80.695 257.227s-.117-238.641-.117-242.086h-26.25s-5.414-.938-9.023 0c-6.539 1.711-8.344 6.468-8.344 14.226v221.274c0 15.703.961 22.5 5.719 27.468-.282-3.609 2.039-16.007 3.937-19.406 1.688-3 34.078-1.476 34.078-1.476Z" style="fill: rgb(97, 97, 97);" class="fills" data-testid="svg-path"/><g data-testid="svg-line"><path d="M54.328 15.117v244.688" style="fill: none; stroke-miterlimit: 10;" class="fills"/><g class="strokes" style="fill: none; stroke-miterlimit: 10;"><path d="M54.328 15.117v244.688" style="fill: none; stroke-width: 2; stroke: rgb(66, 66, 66); stroke-opacity: 1;" class="stroke-shape"/></g></g><g data-testid="svg-path"><path d="m80.578 256.266-26.484.515c-8.836 0-11.86 9.469-10.289 15.727 1.968 7.898 10.125 9.187 12.14 9.187h29.649" style="fill: none; stroke-miterlimit: 10;" class="fills"/><g class="strokes" style="fill: none; stroke-miterlimit: 10;"><path d="m80.578 256.266-26.484.515c-8.836 0-11.86 9.469-10.289 15.727 1.968 7.898 10.125 9.187 12.14 9.187h29.649" style="fill: none; stroke-width: 3; stroke: rgb(66, 66, 66); stroke-opacity: 1;" class="stroke-shape"/></g></g></g><g data-testid="react" class="iconify iconify--logos" style="fill: rgb(0, 0, 0);"><path d="M182.22 117.837a67.075 67.075 0 0 0-3.219-1.014c.182-.742.349-1.475.497-2.196 2.437-11.828.844-21.357-4.597-24.495-5.217-3.008-13.748.129-22.365 7.627a67.23 67.23 0 0 0-2.49 2.285 59.88 59.88 0 0 0-1.657-1.53c-9.03-8.018-18.082-11.398-23.517-8.251-5.212 3.017-6.755 11.975-4.561 23.185.218 1.111.464 2.215.739 3.313a65.633 65.633 0 0 0-3.701 1.164C106.761 121.616 100 127.401 100 133.402c0 6.197 7.259 12.413 18.286 16.182a57.92 57.92 0 0 0 2.703.846 66.744 66.744 0 0 0-.785 3.569c-2.091 11.016-.458 19.762 4.74 22.76 5.369 3.096 14.38-.086 23.154-7.755a56.614 56.614 0 0 0 2.086-1.924c.878.848 1.78 1.67 2.704 2.467 8.499 7.313 16.892 10.266 22.085 7.26 5.364-3.105 7.107-12.501 4.844-23.933a56.626 56.626 0 0 0-.599-2.672 62.697 62.697 0 0 0 1.859-.582c11.464-3.798 18.923-9.938 18.923-16.218 0-6.023-6.98-11.847-17.78-15.565Zm-2.486 27.729c-.547.18-1.108.355-1.68.525-1.266-4.007-2.974-8.267-5.064-12.669 1.995-4.297 3.637-8.502 4.867-12.483 1.023.296 2.016.608 2.973.938 9.254 3.185 14.898 7.895 14.898 11.525 0 3.865-6.096 8.884-15.994 12.164Zm-4.107 8.138c1 5.055 1.143 9.625.48 13.198-.595 3.21-1.793 5.351-3.274 6.208-3.151 1.824-9.891-.547-17.159-6.801a61.997 61.997 0 0 1-2.515-2.293c2.818-3.082 5.634-6.664 8.383-10.643 4.834-.429 9.401-1.131 13.543-2.088.2.802.38 1.608.542 2.419Zm-41.535 19.091c-3.079 1.087-5.531 1.118-7.013.264-3.155-1.82-4.466-8.843-2.677-18.263.212-1.113.456-2.22.73-3.32 4.096.906 8.63 1.558 13.475 1.951 2.768 3.893 5.665 7.472 8.585 10.605a52.62 52.62 0 0 1-1.905 1.755c-3.88 3.392-7.768 5.798-11.195 7.008Zm-14.424-27.253c-4.876-1.667-8.903-3.833-11.663-6.197-2.481-2.124-3.733-4.233-3.733-5.943 0-3.642 5.429-8.286 14.483-11.443a61.836 61.836 0 0 1 3.442-1.083c1.252 4.07 2.893 8.326 4.874 12.629-2.007 4.368-3.671 8.691-4.935 12.81a53.02 53.02 0 0 1-2.468-.773Zm4.835-32.914c-1.879-9.605-.631-16.849 2.51-18.668 3.345-1.937 10.743.825 18.54 7.748.509.453 1.009.914 1.501 1.385-2.906 3.12-5.777 6.672-8.519 10.542-4.703.436-9.205 1.136-13.344 2.074a62.26 62.26 0 0 1-.688-3.081Zm43.136 10.651a137.587 137.587 0 0 0-3.041-5.001c3.19.404 6.247.939 9.118 1.594a91.471 91.471 0 0 1-3.2 8.611 152.267 152.267 0 0 0-2.877-5.204Zm-17.591-17.133a91.485 91.485 0 0 1 5.885 7.104 125.576 125.576 0 0 0-11.819-.002 94.266 94.266 0 0 1 5.934-7.102Zm-17.703 17.163a124.9 124.9 0 0 0-2.824 5.171 94.613 94.613 0 0 1-3.177-8.653 96.223 96.223 0 0 1 9.066-1.557 124.753 124.753 0 0 0-3.065 5.039Zm3.156 25.528c-3.275-.366-6.364-.861-9.216-1.482a95.719 95.719 0 0 1 3.242-8.828 125.214 125.214 0 0 0 5.974 10.31Zm14.665 12.121a95.692 95.692 0 0 1-6.017-7.201c1.915.075 3.867.114 5.851.114 2.038 0 4.053-.046 6.036-.134-1.947 2.646-3.913 5.066-5.87 7.221Zm20.39-22.585c1.337 3.047 2.463 5.994 3.358 8.797-2.9.662-6.03 1.194-9.328 1.59a149.845 149.845 0 0 0 3.069-5.088 136.6 136.6 0 0 0 2.901-5.299Zm-6.601 3.164a140.554 140.554 0 0 1-4.797 7.741c-3.048.216-6.103.323-9.158.321-3.112 0-6.139-.097-9.054-.286a121.19 121.19 0 0 1-4.888-7.752h.001a120.324 120.324 0 0 1-4.267-8.057 120.743 120.743 0 0 1 4.254-8.062l-.001.001a120.206 120.206 0 0 1 4.849-7.72c2.974-.225 6.024-.342 9.106-.342 3.096 0 6.15.119 9.123.345a128.46 128.46 0 0 1 4.818 7.694 139.854 139.854 0 0 1 4.311 8.023 128.793 128.793 0 0 1-4.297 8.094Zm8.813-47.704c3.348 1.931 4.65 9.719 2.546 19.932a56.706 56.706 0 0 1-.449 1.988c-4.149-.958-8.654-1.67-13.371-2.112-2.748-3.913-5.595-7.471-8.453-10.55a62.867 62.867 0 0 1 2.3-2.11c7.383-6.424 14.283-8.961 17.427-7.148ZM150 124.472a8.93 8.93 0 1 1-8.93 8.93 8.93 8.93 0 0 1 8.93-8.93Z" style="fill: rgb(0, 216, 255);" class="fills" data-testid="svg-path"/></g></g></svg>